<?xml version="1.0" encoding="UTF-8" standalone="no"?>
<svg
   xmlns:dc="http://purl.org/dc/elements/1.1/"
   xmlns:cc="http://creativecommons.org/ns#"
   xmlns:rdf="http://www.w3.org/1999/02/22-rdf-syntax-ns#"
   xmlns:svg="http://www.w3.org/2000/svg"
   xmlns="http://www.w3.org/2000/svg"
   viewBox="0 0 233.33333 230.66667"
   height="230.66667"
   width="233.33333"
   xml:space="preserve"
   id="svg2"
   version="1.1"><metadata
     id="metadata8"><rdf:RDF><cc:Work
         rdf:about=""><dc:format>image/svg+xml</dc:format><dc:type
           rdf:resource="http://purl.org/dc/dcmitype/StillImage" /></cc:Work></rdf:RDF></metadata><defs
     id="defs6" /><g
     transform="matrix(1.3333333,0,0,-1.3333333,0,230.66667)"
     id="g10"><g
       id="g12" /><g
       id="g14"><path
         id="path16"
         style="fill:#ffc000;fill-opacity:1;fill-rule:nonzero;stroke:none"
         d="m 12.5,147.6667 c 0,13.1628 25.07205,23.8333 56,23.8333 30.92795,0 56,-10.6705 56,-23.8333 V 52.33333 c 0,-13.16279 -25.07205,-23.83334 -56,-23.83334 -30.92795,0 -56,10.67055 -56,23.83334 z" /><g
         transform="matrix(7.874016e-5,0,0,-7.874016e-5,12.5,171.5)"
         id="g18"><path
           id="path20"
           style="fill:none;stroke:#7030a0;stroke-width:38100;stroke-linecap:butt;stroke-linejoin:miter;stroke-miterlimit:8;stroke-dasharray:none;stroke-opacity:1"
           d="m 1422400,302683.3 c 0,167167.4 -318415,302683.4 -711200,302683.4 C 318415.1,605366.7 0,469850.7 0,302683.3" /></g><g
         transform="matrix(7.874016e-5,0,0,-7.874016e-5,12.5,171.5)"
         id="g22"><path
           id="path24"
           style="fill:none;stroke:#7030a0;stroke-width:38100;stroke-linecap:butt;stroke-linejoin:miter;stroke-miterlimit:8;stroke-dasharray:none;stroke-opacity:1"
           d="M 0,302683.3 C 0,135515.9 318415.1,0 711200,0 c 392785,0 711200,135515.9 711200,302683.3 V 1513417 c 0,167167 -318415,302683 -711200,302683 C 318415.1,1816100 0,1680584 0,1513417 Z" /></g><g
         transform="translate(19.10843,-82)"
         id="g26"><text
           id="text30"
           style="font-variant:normal;font-weight:500;font-size:32px;font-family:'JetBrains Mono';-inkscape-font-specification:JetBrainsMono-Medium;writing-mode:lr-tb;fill:#7030a0;fill-opacity:1;fill-rule:nonzero;stroke:none"
           transform="matrix(1,0,0,-1,0,173)"><tspan
             id="tspan28"
             y="0"
             x="0 19.2512 38.502399 57.753601">Data</tspan></text></g><path
         id="path32"
         style="fill:#c5e0b4;fill-opacity:1;fill-rule:nonzero;stroke:none"
         d="m 149.7051,1.554184 -18.5535,39.666006 5.6163,18.88007 18.0913,-7.79101 18.5535,-39.666 -18.0913,7.79101 z" /><g
         transform="matrix(-3.33611e-5,7.132356e-5,7.132356e-5,3.33611e-5,149.7051,1.554184)"
         id="g34"><path
           id="path36"
           style="fill:none;stroke:#385723;stroke-width:12700;stroke-linecap:butt;stroke-linejoin:miter;stroke-miterlimit:8;stroke-dasharray:none;stroke-opacity:1"
           d="M 0,0 H 556141.7 L 743114,166197.9 556141.7,332395 H 0 L 186972.3,166197.9 Z" /></g><path
         id="path38"
         style="fill:#c5e0b4;fill-opacity:1;fill-rule:nonzero;stroke:none"
         d="M 89.73188,11.70947 106.7114,52.0743 124.4825,60.57059 130.8367,41.92596 113.8571,1.561134 107.503,20.20576 Z" /><g
         transform="matrix(3.053096e-5,7.258011e-5,7.258011e-5,-3.053096e-5,89.73188,11.70947)"
         id="g40"><path
           id="path42"
           style="fill:none;stroke:#385723;stroke-width:12700;stroke-linecap:butt;stroke-linejoin:miter;stroke-miterlimit:8;stroke-dasharray:none;stroke-opacity:1"
           d="M 0,0 H 556141.7 L 743114,166197.9 556141.7,332395 H 0 L 186972.3,166197.9 Z" /></g><path
         id="path44"
         style="fill:#c5e0b4;fill-opacity:1;fill-rule:evenodd;stroke:none"
         d="m 94.5,74.5 c 0,19.88225 16.1177,36 36,36 19.8822,0 36,-16.11775 36,-36 0,-19.88225 -16.1178,-36 -36,-36 -19.8823,0 -36,16.11775 -36,36 z" /><g
         transform="matrix(7.874016e-5,0,0,-7.874016e-5,94.5,110.5)"
         id="g46"><path
           id="path48"
           style="fill:none;stroke:#385723;stroke-width:12700;stroke-linecap:butt;stroke-linejoin:miter;stroke-miterlimit:8;stroke-dasharray:none;stroke-opacity:1"
           d="M 0,457200 C 0,204695.4 204695.4,0 457200,0 709704.6,0 914400,204695.4 914400,457200 914400,709704.6 709704.6,914400 457200,914400 204695.4,914400 0,709704.6 0,457200 Z" /></g><path
         id="path50"
         style="fill:#ffffff;fill-opacity:1;fill-rule:nonzero;stroke:none"
         d="m 103.5,74.5 c 0,14.91169 12.0883,27 27,27 14.9117,0 27,-12.08831 27,-27 0,-14.91169 -12.0883,-27 -27,-27 -14.9117,0 -27,12.08831 -27,27 z" /><g
         transform="matrix(7.874016e-5,0,0,-7.874016e-5,103.5,101.5)"
         id="g52"><path
           id="path54"
           style="fill:none;stroke:#385723;stroke-width:12700;stroke-linecap:butt;stroke-linejoin:miter;stroke-miterlimit:8;stroke-dasharray:none;stroke-opacity:1"
           d="M 0,342900 C 0,153521.6 153521.6,0 342900,0 532278.4,0 685800,153521.6 685800,342900 685800,532278.4 532278.4,685800 342900,685800 153521.6,685800 0,532278.4 0,342900 Z" /></g><g
         transform="translate(113.8511,-115)"
         id="g56"><text
           id="text60"
           style="font-variant:normal;font-weight:normal;font-size:44px;font-family:SegoeUISymbol;-inkscape-font-specification:SegoeUISymbol;writing-mode:lr-tb;fill:#385723;fill-opacity:1;fill-rule:nonzero;stroke:#385723;stroke-width:1.38;stroke-linecap:butt;stroke-linejoin:miter;stroke-miterlimit:10;stroke-dasharray:none;stroke-opacity:1"
           transform="matrix(1,0,0,-0.98039205,0,173.6765)"><tspan
             id="tspan58"
             y="0"
             x="0">✓</tspan></text></g></g></g></svg>
