<?xml version="1.0" encoding="UTF-8" standalone="no"?>
<svg
   xmlns:dc="http://purl.org/dc/elements/1.1/"
   xmlns:cc="http://creativecommons.org/ns#"
   xmlns:rdf="http://www.w3.org/1999/02/22-rdf-syntax-ns#"
   xmlns:svg="http://www.w3.org/2000/svg"
   xmlns="http://www.w3.org/2000/svg"
   xmlns:sodipodi="http://sodipodi.sourceforge.net/DTD/sodipodi-0.dtd"
   xmlns:inkscape="http://www.inkscape.org/namespaces/inkscape"
   sodipodi:docname="GGsteps.pdf"
   viewBox="0 0 1117.3333 326.66666"
   height="326.66666"
   width="1117.3333"
   xml:space="preserve"
   id="svg2"
   version="1.1"><metadata
     id="metadata8"><rdf:RDF><cc:Work
         rdf:about=""><dc:format>image/svg+xml</dc:format><dc:type
           rdf:resource="http://purl.org/dc/dcmitype/StillImage" /></cc:Work></rdf:RDF></metadata><defs
     id="defs6"><clipPath
       id="clipPath20"
       clipPathUnits="userSpaceOnUse"><path
         inkscape:connector-curvature="0"
         id="path18"
         d="M 0,0 H 838 V 245 H 0 Z" /></clipPath></defs><sodipodi:namedview
     id="namedview4"
     inkscape:window-height="480"
     inkscape:window-width="640"
     inkscape:pageshadow="2"
     inkscape:pageopacity="0"
     guidetolerance="10"
     gridtolerance="10"
     objecttolerance="10"
     borderopacity="1"
     inkscape:document-rotation="0"
     bordercolor="#666666"
     pagecolor="#ffffff" /><g
     transform="matrix(1.3333333,0,0,-1.3333333,0,326.66667)"
     inkscape:label="GGsteps"
     inkscape:groupmode="layer"
     id="g10"><g
       id="g12" /><g
       id="g14"><g
         clip-path="url(#clipPath20)"
         id="g16"><path
           inkscape:connector-curvature="0"
           id="path22"
           style="fill:#fbe5d6;fill-opacity:1;fill-rule:nonzero;stroke:none"
           d="M 82,140.8331 C 82,146.4481 86.55184,151 92.16683,151 H 217.8332 C 223.4482,151 228,146.4481 228,140.8331 V 100.1669 C 228,94.55186 223.4482,90 217.8332,90 H 92.16683 C 86.55184,90 82,94.55186 82,100.1669 Z" /><g
           transform="matrix(7.874016e-5,0,0,-7.874016e-5,82,151)"
           id="g24"><path
             inkscape:connector-curvature="0"
             id="path26"
             style="fill:none;stroke:#c55a11;stroke-width:28575;stroke-linecap:butt;stroke-linejoin:miter;stroke-miterlimit:8;stroke-dasharray:none;stroke-opacity:1"
             d="M 0,129119 C 0,57808.56 57808.43,0 129118.7,0 H 1725081 c 71311,0 129119,57808.56 129119,129119 v 516462 c 0,71310.4 -57808,129119 -129119,129119 H 129118.7 C 57808.43,774700 0,716891.4 0,645581 Z" /></g><g
           transform="translate(117.2989,-120)"
           id="g28"><text
             id="text32"
             style="font-variant:normal;font-weight:normal;font-size:18px;font-family:Helvetica,Calibri;-inkscape-font-specification:Helvetica,Calibri;writing-mode:lr-tb;fill:#ed7d31;fill-opacity:1;fill-rule:nonzero;stroke:none"
             transform="matrix(1,0,0,-1,0,245)"><tspan
               id="tspan30"
               sodipodi:role="line"
               y="0"
               >Aesthetics </tspan></text></g><g
           transform="translate(122.9039,-141)"
           id="g34"><text
             id="text38"
             style="font-variant:normal;font-weight:normal;font-size:18px;font-family:Helvetica,Calibri;-inkscape-font-specification:Helvetica,Calibri;writing-mode:lr-tb;fill:#ed7d31;fill-opacity:1;fill-rule:nonzero;stroke:none"
             transform="matrix(1,0,0,-1,0,245)"><tspan
               id="tspan36"
               sodipodi:role="line"
               y="0"
               >mapping</tspan></text></g><path
           inkscape:connector-curvature="0"
           id="path40"
           style="fill:#fbe5d6;fill-opacity:1;fill-rule:nonzero;stroke:none"
           d="M 285,140.8331 C 285,146.4481 289.5518,151 295.1668,151 H 420.8332 C 426.4482,151 431,146.4481 431,140.8331 V 100.1669 C 431,94.55186 426.4482,90 420.8332,90 H 295.1668 C 289.5518,90 285,94.55186 285,100.1669 Z" /><g
           transform="matrix(7.874016e-5,0,0,-7.874016e-5,285,151)"
           id="g42"><path
             inkscape:connector-curvature="0"
             id="path44"
             style="fill:none;stroke:#c55a11;stroke-width:28575;stroke-linecap:butt;stroke-linejoin:miter;stroke-miterlimit:8;stroke-dasharray:none;stroke-opacity:1"
             d="M 0,129119 C 0,57808.56 57808.43,0 129118.7,0 H 1725081 c 71311,0 129119,57808.56 129119,129119 v 516462 c 0,71310.4 -57808,129119 -129119,129119 H 129118.7 C 57808.43,774700 0,716891.4 0,645581 Z" /></g><g
           transform="translate(339.2143,-131)"
           id="g46"><text
             id="text50"
             style="font-variant:normal;font-weight:normal;font-size:18px;font-family:Helvetica,Calibri;-inkscape-font-specification:Helvetica,Calibri;writing-mode:lr-tb;fill:#ed7d31;fill-opacity:1;fill-rule:nonzero;stroke:none"
             transform="matrix(1,0,0,-1,0,245)"><tspan
               id="tspan48"
               sodipodi:role="line"
               y="0"
               >Scale</tspan></text></g><path
           inkscape:connector-curvature="0"
           id="path52"
           style="fill:#fbe5d6;fill-opacity:1;fill-rule:nonzero;stroke:none"
           d="M 488,140.8331 C 488,146.4481 492.5518,151 498.1668,151 H 623.8332 C 629.4482,151 634,146.4481 634,140.8331 V 100.1669 C 634,94.55186 629.4482,90 623.8332,90 H 498.1668 C 492.5518,90 488,94.55186 488,100.1669 Z" /><g
           transform="matrix(7.874016e-5,0,0,-7.874016e-5,488,151)"
           id="g54"><path
             inkscape:connector-curvature="0"
             id="path56"
             style="fill:none;stroke:#c55a11;stroke-width:28575;stroke-linecap:butt;stroke-linejoin:miter;stroke-miterlimit:8;stroke-dasharray:none;stroke-opacity:1"
             d="M 0,129119 C 0,57808.56 57808.43,0 129118.7,0 H 1725081 c 71311,0 129119,57808.56 129119,129119 v 516462 c 0,71310.4 -57808,129119 -129119,129119 H 129118.7 C 57808.43,774700 0,716891.4 0,645581 Z" /></g><g
           transform="translate(520.4296,-120)"
           id="g58"><text
             id="text62"
             style="font-variant:normal;font-weight:normal;font-size:18px;font-family:Helvetica,Calibri;-inkscape-font-specification:Helvetica,Calibri;writing-mode:lr-tb;fill:#ed7d31;fill-opacity:1;fill-rule:nonzero;stroke:none"
             transform="matrix(1,0,0,-1,0,245)"><tspan
               id="tspan60"
               sodipodi:role="line"
               y="0"
               >Coordinate </tspan></text></g><g
           transform="translate(535.6346,-141)"
           id="g64"><text
             id="text68"
             style="font-variant:normal;font-weight:normal;font-size:18px;font-family:Helvetica,Calibri;-inkscape-font-specification:Helvetica,Calibri;writing-mode:lr-tb;fill:#ed7d31;fill-opacity:1;fill-rule:nonzero;stroke:none"
             transform="matrix(1,0,0,-1,0,245)"><tspan
               id="tspan66"
               sodipodi:role="line"
               y="0"
               >system</tspan></text></g><path
           inkscape:connector-curvature="0"
           id="path70"
           style="fill:#e2f0d9;fill-opacity:1;fill-rule:nonzero;stroke:none"
           d="m 1,237.125 c 0,-3.7969 12.31219,-6.875 27.50004,-6.875 15.18786,0 27.50005,3.0781 27.50005,6.875 L 56,172.875 C 56,169.078 43.68781,166 28.49996,166 13.3121,166 0.9999147,169.078 0.9999147,172.875 Z" /><path
           inkscape:connector-curvature="0"
           id="path72"
           style="fill:#eef6e8;fill-opacity:1;fill-rule:nonzero;stroke:none"
           d="m 1,237.125 c 0,3.797 12.31219,6.875 27.50004,6.875 15.18786,0 27.50005,-3.078 27.50005,-6.875 0,-3.7969 -12.31219,-6.875 -27.50005,-6.875 C 13.31219,230.25 1,233.3281 1,237.125 Z" /><g
           transform="matrix(7.874016e-5,0,0,-7.874016e-5,1,244)"
           id="g74"><path
             inkscape:connector-curvature="0"
             id="path76"
             style="fill:none;stroke:#548235;stroke-width:28575;stroke-linecap:butt;stroke-linejoin:miter;stroke-miterlimit:8;stroke-dasharray:none;stroke-opacity:1"
             d="m 698500,87312.34 c 0,48221.26 -156364.8,87312.36 -349250.5,87312.36 C 156363.7,174624.7 -1.083334,135533.6 -1.083334,87312.34 -1.083334,39091.06 156363.7,0 349249.5,0 542135.2,0 698500,39091.06 698500,87312.34 V 903287.7 C 698500,951509 542135.2,990600 349249.5,990600 156363.7,990600 -1.083334,951509 -1.083334,903287.7 L 0,87312.34" /></g><g
           transform="translate(11.75197,-50)"
           id="g78"><text
             id="text82"
             style="font-variant:normal;font-weight:normal;font-size:18px;font-family:Helvetica,Calibri;-inkscape-font-specification:Helvetica,Calibri;writing-mode:lr-tb;fill:#548235;fill-opacity:1;fill-rule:nonzero;stroke:none"
             transform="matrix(1,0,0,-1,0,245)"><tspan
               id="tspan80"
               sodipodi:role="line"
               y="0"
               >Data</tspan></text></g><path
           inkscape:connector-curvature="0"
           id="path84"
           style="fill:#7f7f7f;fill-opacity:1;fill-rule:nonzero;stroke:none"
           d="m 28.25189,165.9468 0.30968,-4.3552 0.91207,-4.3661 1.46809,-4.2879 1.98214,-4.1762 2.45508,-4.0319 2.88769,-3.8553 3.2806,-3.6463 3.64548,-3.4153 8.14977,-5.9359 4.47606,-2.4899 4.66195,-2.1083 4.82273,-1.7 4.94505,-1.2574 5.0287,-0.7802 3.54998,-0.1875 0.07911,1.498 -3.51207,0.1854 0.07543,-0.008 -4.95592,0.7689 0.06985,-0.0143 -4.87778,1.2403 0.06451,-0.0195 -4.76056,1.6781 0.05971,-0.024 -4.60426,2.0822 0.05556,-0.028 -4.40889,2.4526 0.07697,-0.0492 -8.07536,5.8817 0.07121,-0.0589 -3.58832,3.3618 0.04478,-0.0457 -3.23665,3.5974 0.04273,-0.052 -2.84591,3.7996 0.0403,-0.0596 -2.41609,3.9679 0.03696,-0.0685 -1.9472,4.1026 0.03201,-0.0787 -1.43924,4.2037 0.02459,-0.0896 -0.8922,4.2709 0.01396,-0.1001 -0.30608,4.3046 -1.49622,-0.1064 z m 46.78161,-49.69 7.31942,3.7671 -6.88194,4.517 c -0.34628,0.2273 -0.81125,0.1309 -1.03854,-0.2154 -0.22729,-0.3463 -0.13083,-0.8113 0.21546,-1.0386 l 5.80708,-3.8115 0.06832,1.2939 -6.17622,-3.1787 c -0.3683,-0.1896 -0.5132,-0.6418 -0.32365,-1.0101 0.18955,-0.3683 0.64178,-0.5132 1.01007,-0.3237 z" /><path
           inkscape:connector-curvature="0"
           id="path86"
           style="fill:#e2f0d9;fill-opacity:1;fill-rule:nonzero;stroke:none"
           d="m 207,175 h 106 v 60 H 207 Z" /><g
           transform="matrix(7.874016e-5,0,0,-7.874016e-5,207,235)"
           id="g88"><path
             inkscape:connector-curvature="0"
             id="path90"
             style="fill:none;stroke:#548235;stroke-width:28575;stroke-linecap:butt;stroke-linejoin:miter;stroke-miterlimit:8;stroke-dasharray:none;stroke-opacity:1"
             d="M 0,0 H 1346200 V 762000 H 0 Z" /></g><g
           transform="translate(230.6078,-35)"
           id="g92"><text
             id="text96"
             style="font-variant:normal;font-weight:normal;font-size:18px;font-family:Helvetica,Calibri;-inkscape-font-specification:Helvetica,Calibri;writing-mode:lr-tb;fill:#548235;fill-opacity:1;fill-rule:nonzero;stroke:none"
             transform="matrix(1,0,0,-1,0,245)"><tspan
               id="tspan94"
               sodipodi:role="line"
               y="0"
               >Position </tspan></text></g><g
           transform="translate(223.1378,-56)"
           id="g98"><text
             id="text102"
             style="font-variant:normal;font-weight:normal;font-size:18px;font-family:Helvetica,Calibri;-inkscape-font-specification:Helvetica,Calibri;writing-mode:lr-tb;fill:#548235;fill-opacity:1;fill-rule:nonzero;stroke:none"
             transform="matrix(1,0,0,-1,0,245)"><tspan
               id="tspan100"
               sodipodi:role="line"
               y="0"
               >aesthetics</tspan></text></g><path
           inkscape:connector-curvature="0"
           id="path104"
           style="fill:#7f7f7f;fill-opacity:1;fill-rule:nonzero;stroke:none"
           d="m 154.2513,150.6579 0.3011,5.134 0.8843,5.1324 1.4247,5.0457 1.9258,4.9195 2.3875,4.7542 2.8106,4.5497 3.1954,4.3063 3.5421,4.0237 3.8513,3.7018 4.1228,3.3402 4.3571,2.9389 4.5543,2.4972 4.7144,2.0149 4.8369,1.4913 4.9218,0.9259 3.4369,0.22 0.0959,-1.4969 -3.3912,-0.2172 0.0907,0.0114 -4.835,-0.9095 0.0823,0.0204 -4.7588,-1.4672 0.0738,0.027 -4.6444,-1.985 0.0658,0.032 -4.492,-2.463 0.0588,0.0358 -4.3013,-2.9012 0.0527,0.039 -4.0726,-3.2995 0.0476,0.042 -3.8058,-3.658 0.0433,0.0451 -3.5008,-3.9767 0.0393,0.0487 -3.1577,-4.2556 0.0358,0.0528 -2.7765,-4.4946 0.0321,0.0576 -2.3571,-4.6937 0.0281,0.0632 -1.8997,-4.8531 0.0234,0.0696 -1.4041,-4.9726 0.0173,0.0765 -0.8704,-5.0522 0.01,0.0834 -0.2986,-5.092 -1.4975,0.0878 z m 45.4393,58.0274 7.3611,-3.685 -6.831,-4.5938 c -0.3437,-0.2311 -0.8097,-0.1399 -1.0409,0.2039 -0.2311,0.3437 -0.1399,0.8097 0.2039,1.0409 l 5.764,3.8762 0.0828,-1.293 -6.2114,3.1094 c -0.3703,0.1855 -0.5203,0.636 -0.3349,1.0064 0.1854,0.3704 0.636,0.5204 1.0064,0.335 z" /><path
           inkscape:connector-curvature="0"
           id="path106"
           style="fill:#e2f0d9;fill-opacity:1;fill-rule:nonzero;stroke:none"
           d="m 411,175 h 106 v 60 H 411 Z" /><g
           transform="matrix(7.874016e-5,0,0,-7.874016e-5,411,235)"
           id="g108"><path
             inkscape:connector-curvature="0"
             id="path110"
             style="fill:none;stroke:#548235;stroke-width:28575;stroke-linecap:butt;stroke-linejoin:miter;stroke-miterlimit:8;stroke-dasharray:none;stroke-opacity:1"
             d="M 0,0 H 1346200 V 762000 H 0 Z" /></g><g
           transform="translate(440.2984,-35)"
           id="g112"><text
             id="text116"
             style="font-variant:normal;font-weight:normal;font-size:18px;font-family:Helvetica,Calibri;-inkscape-font-specification:Helvetica,Calibri;writing-mode:lr-tb;fill:#548235;fill-opacity:1;fill-rule:nonzero;stroke:none"
             transform="matrix(1,0,0,-1,0,245)"><tspan
               id="tspan114"
               sodipodi:role="line"
               y="0"
               >Scaled </tspan></text></g><g
           transform="translate(434.1584,-56)"
           id="g118"><text
             id="text122"
             style="font-variant:normal;font-weight:normal;font-size:18px;font-family:Helvetica,Calibri;-inkscape-font-specification:Helvetica,Calibri;writing-mode:lr-tb;fill:#548235;fill-opacity:1;fill-rule:nonzero;stroke:none"
             transform="matrix(1,0,0,-1,0,245)"><tspan
               id="tspan120"
               sodipodi:role="line"
               y="0"
               >position</tspan></text></g><path
           inkscape:connector-curvature="0"
           id="path124"
           style="fill:#7f7f7f;fill-opacity:1;fill-rule:nonzero;stroke:none"
           d="m 313.0553,205.748 4.2758,-0.3159 4.2887,-0.9309 4.2108,-1.498 4.1,-2.0219 3.9575,-2.5039 3.7834,-2.9444 3.5777,-3.3446 3.3506,-3.7159 5.8229,-8.3067 2.4418,-4.5611 2.0675,-4.7503 1.667,-4.9136 1.2329,-5.0378 0.7648,-5.1224 0.1853,-3.6455 -1.4981,-0.0761 -0.1834,3.6089 0.007,-0.0727 -0.7544,5.0523 0.0133,-0.0676 -1.2169,4.9726 0.0182,-0.0627 -1.6464,4.8531 0.0226,-0.0584 -2.0429,4.6937 0.0265,-0.0547 -2.4063,4.4946 0.047,-0.0765 -5.7707,8.2323 0.0572,-0.0718 -3.2983,3.6581 0.0448,-0.0457 -3.5296,3.2996 0.0515,-0.044 -3.7278,2.9012 0.0596,-0.0419 -3.893,2.463 0.0693,-0.0389 -4.0252,1.9851 0.0804,-0.034 -4.1243,1.4672 0.0923,-0.0263 -4.1904,0.9095 0.1038,-0.015 -4.2234,0.312 0.1106,1.496 z m 48.8348,-47.8256 -3.7816,-7.3119 -4.5034,6.8908 c -0.2266,0.3468 -0.1292,0.8115 0.2175,1.0381 0.3468,0.2266 0.8115,0.1293 1.0381,-0.2175 l 3.8001,-5.8146 -1.294,-0.0657 3.1909,6.1699 c 0.1903,0.3679 0.6428,0.5119 1.0107,0.3216 0.3679,-0.1903 0.512,-0.6428 0.3217,-1.0107 z" /><path
           inkscape:connector-curvature="0"
           id="path126"
           style="fill:#7f7f7f;fill-opacity:1;fill-rule:nonzero;stroke:none"
           d="m 357.2514,150.6586 0.3061,5.1347 0.8992,5.1336 1.4488,5.0466 1.9581,4.9202 2.4275,4.7546 2.8576,4.5499 3.2486,4.3062 3.601,4.0235 3.915,3.7013 4.1908,3.3397 4.4288,2.9382 4.6289,2.4965 4.7911,2.0141 4.9154,1.4906 5.0011,0.9254 3.5173,0.2215 0.0943,-1.497 -3.4723,-0.2187 0.0893,0.011 -4.9157,-0.9095 0.0812,0.0198 -4.8381,-1.4672 0.073,0.0263 -4.7219,-1.9851 0.0654,0.0313 -4.5668,-2.463 0.0586,0.0351 -4.3731,-2.9012 0.0528,0.0384 -4.1405,-3.2995 0.0478,0.0415 -3.8692,-3.658 0.0436,0.0448 -3.5592,-3.9767 0.0399,0.0485 -3.2103,-4.2556 0.0364,0.0528 -2.8228,-4.4945 0.0328,0.0578 -2.3964,-4.6937 0.0288,0.0637 -1.9313,-4.853 0.024,0.0704 -1.4275,-4.9726 0.0178,0.0776 -0.8849,-5.0523 0.01,0.0848 -0.3036,-5.0921 -1.4973,0.0893 z m 46.3108,58.0343 7.3572,-3.6926 -6.8358,-4.5866 c -0.344,-0.2308 -0.8099,-0.1391 -1.0407,0.2049 -0.2308,0.344 -0.139,0.8099 0.205,1.0407 l 5.7681,3.8702 0.0814,-1.2931 -6.2081,3.1159 c -0.3702,0.1858 -0.5197,0.6366 -0.3339,1.0068 0.1858,0.3702 0.6366,0.5197 1.0068,0.3338 z" /><path
           inkscape:connector-curvature="0"
           id="path128"
           style="fill:#7f7f7f;fill-opacity:1;fill-rule:nonzero;stroke:none"
           d="m 517.0563,205.7479 4.1956,-0.3161 4.2098,-0.9316 4.1325,-1.499 4.0232,-2.023 3.8828,-2.5047 3.7115,-2.9452 3.5095,-3.3451 3.2864,-3.7163 5.7108,-8.3067 2.3947,-4.5606 2.0275,-4.7497 1.6346,-4.9128 1.2089,-5.0367 0.75,-5.1212 0.1817,-3.6448 -1.4982,-0.0746 -0.1799,3.6089 0.007,-0.0714 -0.7398,5.0522 0.0128,-0.0663 -1.1935,4.9725 0.0176,-0.0617 -1.6147,4.853 0.0218,-0.0576 -2.0036,4.6937 0.0258,-0.0542 -2.36,4.4945 0.046,-0.0762 -5.6597,8.2323 0.0562,-0.072 -3.2349,3.6581 0.0444,-0.0461 -3.4617,3.2996 0.0513,-0.0447 -3.6561,2.9013 0.0596,-0.0428 -3.8181,2.4631 0.0696,-0.0399 -3.9478,1.9851 0.0812,-0.035 -4.0449,1.4672 0.0937,-0.0272 -4.1098,0.9095 0.1057,-0.0156 -4.1421,0.312 z m 47.9732,-47.8292 -3.7887,-7.3082 -4.4967,6.8952 c -0.2263,0.347 -0.1284,0.8117 0.2185,1.0379 0.347,0.2263 0.8117,0.1284 1.0379,-0.2185 l 3.7944,-5.8183 -1.294,-0.0645 3.1969,6.1668 c 0.1906,0.3677 0.6433,0.5113 1.011,0.3207 0.3678,-0.1907 0.5113,-0.6433 0.3207,-1.0111 z" /><path
           inkscape:connector-curvature="0"
           id="path130"
           style="fill:#e2f0d9;fill-opacity:1;fill-rule:nonzero;stroke:none"
           d="m 615,174 h 106 v 61 H 615 Z" /><g
           transform="matrix(7.874016e-5,0,0,-7.874016e-5,615,235)"
           id="g132"><path
             inkscape:connector-curvature="0"
             id="path134"
             style="fill:none;stroke:#548235;stroke-width:28575;stroke-linecap:butt;stroke-linejoin:miter;stroke-miterlimit:8;stroke-dasharray:none;stroke-opacity:1"
             d="M 0,0 H 1346200 V 774700 H 0 Z" /></g><g
           transform="translate(625.8266,-47)"
           id="g136"><text
             id="text140"
             style="font-variant:normal;font-weight:normal;font-size:18px;font-family:Helvetica,Calibri;-inkscape-font-specification:Helvetica,Calibri;writing-mode:lr-tb;fill:#548235;fill-opacity:1;fill-rule:nonzero;stroke:none"
             transform="matrix(1,0,0,-1,0,245)"><tspan
               id="tspan138"
               sodipodi:role="line"
               y="0"
               >2D position</tspan></text></g><path
           inkscape:connector-curvature="0"
           id="path142"
           style="fill:#7f7f7f;fill-opacity:1;fill-rule:nonzero;stroke:none"
           d="m 560.2514,150.5274 0.3112,5.0549 0.9147,5.0554 1.4734,4.9692 1.9912,4.844 2.4682,4.6804 2.9052,4.4785 3.3023,4.2382 3.6603,3.9595 3.979,3.6421 4.259,3.286 4.5004,2.8906 4.703,2.4558 4.8674,1.981 4.9928,1.466 5.0793,0.9099 3.597,0.2193 0.0913,-1.4972 -3.5534,-0.2167 0.0866,0.0104 -4.9963,-0.8951 0.0791,0.0187 -4.9175,-1.4438 0.0714,0.0249 -4.7993,-1.9534 0.0644,0.0299 -4.6417,-2.4238 0.0582,0.0338 -4.4448,-2.8549 0.0528,0.0372 -4.2084,-3.2469 0.0482,0.0406 -3.9326,-3.5998 0.0443,0.0442 -3.6175,-3.9133 0.0408,0.0481 -3.263,-4.1877 0.0376,0.0528 -2.869,-4.4228 0.0342,0.0583 -2.4358,-4.6189 0.0303,0.0647 -1.9631,-4.7756 0.0254,0.0719 -1.451,-4.8932 0.019,0.0797 -0.8995,-4.9717 0.0106,0.0874 -0.3086,-5.0108 z m 47.186,57.1802 7.3498,-3.7074 -6.845,-4.5729 c -0.3444,-0.2301 -0.8101,-0.1374 -1.0402,0.207 -0.2301,0.3444 -0.1374,0.8101 0.207,1.0402 l 5.7758,3.8587 0.0789,-1.2932 -6.2019,3.1283 c -0.3698,0.1865 -0.5184,0.6376 -0.3319,1.0074 0.1866,0.3698 0.6376,0.5184 1.0075,0.3319 z" /><path
           inkscape:connector-curvature="0"
           id="path144"
           style="fill:#fbe5d6;fill-opacity:1;fill-rule:nonzero;stroke:none"
           d="M 691,140.8331 C 691,146.4481 695.5518,151 701.1668,151 H 826.8332 C 832.4482,151 837,146.4481 837,140.8331 V 100.1669 C 837,94.55186 832.4482,90 826.8332,90 H 701.1668 C 695.5518,90 691,94.55186 691,100.1669 Z" /><g
           transform="matrix(7.874016e-5,0,0,-7.874016e-5,691,151)"
           id="g146"><path
             inkscape:connector-curvature="0"
             id="path148"
             style="fill:none;stroke:#c55a11;stroke-width:28575;stroke-linecap:butt;stroke-linejoin:miter;stroke-miterlimit:8;stroke-dasharray:none;stroke-opacity:1"
             d="M 0,129119 C 0,57808.56 57808.43,0 129118.7,0 H 1725081 c 71311,0 129119,57808.56 129119,129119 v 516462 c 0,71310.4 -57808,129119 -129119,129119 H 129118.7 C 57808.43,774700 0,716891.4 0,645581 Z" /></g><g
           transform="translate(727.1175,-131)"
           id="g150"><text
             id="text154"
             style="font-variant:normal;font-weight:normal;font-size:18px;font-family:Helvetica,Calibri;-inkscape-font-specification:Helvetica,Calibri;writing-mode:lr-tb;fill:#ed7d31;fill-opacity:1;fill-rule:nonzero;stroke:none"
             transform="matrix(1,0,0,-1,0,245)"><tspan
               id="tspan152"
               sodipodi:role="line"
               y="0"
               >Geometry</tspan></text></g><path
           inkscape:connector-curvature="0"
           id="path156"
           style="fill:#e2f0d9;fill-opacity:1;fill-rule:nonzero;stroke:none"
           d="M 508,5 H 614 V 66 H 508 Z" /><g
           transform="matrix(7.874016e-5,0,0,-7.874016e-5,508,66)"
           id="g158"><path
             inkscape:connector-curvature="0"
             id="path160"
             style="fill:none;stroke:#548235;stroke-width:28575;stroke-linecap:butt;stroke-linejoin:miter;stroke-miterlimit:8;stroke-dasharray:none;stroke-opacity:1"
             d="M 0,0 H 1346200 V 774700 H 0 Z" /></g><g
           transform="translate(537.4546,-205)"
           id="g162"><text
             id="text166"
             style="font-variant:normal;font-weight:normal;font-size:18px;font-family:Helvetica,Calibri;-inkscape-font-specification:Helvetica,Calibri;writing-mode:lr-tb;fill:#548235;fill-opacity:1;fill-rule:nonzero;stroke:none"
             transform="matrix(1,0,0,-1,0,245)"><tspan
               id="tspan164"
               sodipodi:role="line"
               y="0"
               >Scaled </tspan></text></g><g
           transform="translate(524.1496,-226)"
           id="g168"><text
             id="text172"
             style="font-variant:normal;font-weight:normal;font-size:18px;font-family:Helvetica,Calibri;-inkscape-font-specification:Helvetica,Calibri;writing-mode:lr-tb;fill:#548235;fill-opacity:1;fill-rule:nonzero;stroke:none"
             transform="matrix(1,0,0,-1,0,245)"><tspan
               id="tspan170"
               sodipodi:role="line"
               y="0"
               >aesthetics</tspan></text></g><path
           inkscape:connector-curvature="0"
           id="path174"
           style="fill:#7f7f7f;fill-opacity:1;fill-rule:nonzero;stroke:none"
           d="m 357.2527,89.93617 0.2227,-2.60942 0.672,-2.65633 1.0955,-2.62921 1.4991,-2.59655 1.8845,-2.56085 2.2627,-2.53299 5.5441,-4.91214 6.8624,-4.73926 8.0603,-4.52525 9.151,-4.2772 10.1343,-3.99259 11.0093,-3.67007 11.776,-3.30888 12.4336,-2.90856 12.9822,-2.46883 13.4216,-1.98951 13.7518,-1.47048 13.9726,-0.91159 12.5824,-0.27942 0.0333,1.49963 -12.5663,0.27906 0.0322,-0.0014 -13.941,0.90953 0.0309,-0.0027 -13.7212,1.4672 0.0302,-0.0038 -13.3914,1.98504 0.0301,-0.0051 -12.9518,2.46304 0.0307,-0.0065 -12.4022,2.90121 0.0321,-0.0082 -11.7427,3.29955 0.0343,-0.01054 -10.9733,3.65805 0.0377,-0.0137 -10.0939,3.97671 0.0426,-0.01835 -9.1047,4.25555 0.0496,-0.02547 -8.0056,4.49455 0.0591,-0.03685 -6.7965,4.69373 0.0712,-0.05578 -5.4775,4.85306 0.0619,-0.06173 -2.2097,2.47383 0.0447,-0.05511 -1.8388,2.49873 0.0455,-0.06954 -1.4541,2.51864 0.0427,-0.08653 -1.0556,2.53358 0.0348,-0.10452 -0.6435,2.54354 0.0202,-0.12015 -0.2175,2.54851 -1.4946,-0.12757 z m 143.622,-58.31131 7.2009,3.98895 -7.0168,4.30467 c -0.353,0.2166 -0.8148,0.10598 -1.0314,-0.24709 -0.2166,-0.35307 -0.106,-0.81488 0.247,-1.03148 l 5.9209,-3.63234 0.0287,1.29535 -6.0762,-3.36593 c -0.3623,-0.20072 -0.4933,-0.65716 -0.2926,-1.0195 0.2007,-0.36233 0.6571,-0.49335 1.0195,-0.29263 z" /><path
           inkscape:connector-curvature="0"
           id="path176"
           style="fill:#7f7f7f;fill-opacity:1;fill-rule:nonzero;stroke:none"
           d="m 721.0565,204.7479 4.1146,-0.3111 4.1294,-0.9174 4.0534,-1.4757 3.9459,-1.9915 3.8079,-2.4657 3.6397,-2.899 3.4415,-3.2926 3.2228,-3.658 5.5997,-8.1754 2.3482,-4.4888 1.988,-4.6748 1.6029,-4.8353 1.1853,-4.9571 0.7354,-5.0404 0.177,-3.5634 -1.4982,-0.0744 -0.1752,3.5277 0.007,-0.0711 -0.7254,4.9716 0.0127,-0.0661 -1.1701,4.8932 0.0176,-0.0615 -1.5831,4.7756 0.0217,-0.0575 -1.9642,4.6189 0.0256,-0.0542 -2.3137,4.4229 0.0458,-0.0762 -5.5487,8.101 0.056,-0.072 -3.1714,3.5997 0.0443,-0.0461 -3.3938,3.2469 0.0512,-0.0447 -3.5844,2.8549 0.0596,-0.0429 -3.7432,2.4238 0.0697,-0.04 -3.8703,1.9534 0.0814,-0.0352 -3.9656,1.4438 0.0939,-0.0274 -4.0291,0.895 0.1061,-0.0157 -4.0609,0.307 z m 47.1065,-46.9625 -3.7901,-7.3075 -4.4954,6.8961 c -0.2262,0.3469 -0.1283,0.8116 0.2187,1.0378 0.347,0.2262 0.8117,0.1283 1.0379,-0.2187 l 3.7933,-5.819 -1.2941,-0.0643 3.1981,6.1662 c 0.1907,0.3677 0.6434,0.5112 1.0111,0.3205 0.3677,-0.1907 0.5112,-0.6434 0.3205,-1.0111 z" /><path
           inkscape:connector-curvature="0"
           id="path178"
           style="fill:#7f7f7f;fill-opacity:1;fill-rule:nonzero;stroke:none"
           d="m 614.0167,34.86412 14.067,0.31239 13.9726,0.91159 13.7518,1.47048 13.4217,1.98952 12.9822,2.46884 12.4336,2.90856 11.7759,3.30888 11.0094,3.67008 10.1343,3.99259 9.151,4.2772 8.0603,4.52526 6.8624,4.73925 5.5442,4.91213 2.2626,2.533 1.8845,2.56084 1.4991,2.59655 1.0955,2.6292 0.672,2.65632 0.0965,1.12979 -1.4946,0.12758 -0.0912,-1.06889 0.0201,0.12015 -0.6434,-2.54353 0.0348,0.10452 -1.0557,-2.53357 0.0428,0.08653 -1.4541,-2.51864 0.0455,0.06954 -1.8388,-2.49872 0.0447,0.0551 -2.2098,-2.47382 0.062,0.06173 -5.4775,-4.85305 0.0711,0.05577 -6.7964,-4.69372 0.059,0.03685 -8.0056,-4.49456 0.0496,0.02547 -9.1047,-4.25555 0.0427,0.01835 -10.094,-3.97672 0.0377,0.01371 -10.9733,-3.65805 0.0343,0.01053 -11.7427,-3.29955 0.032,0.0083 -12.4022,-2.90122 0.0307,0.0065 -12.9518,-2.46304 0.0302,0.0051 -13.3915,-1.98504 0.0303,0.0039 -13.7212,-1.46721 0.0309,0.0027 -13.9411,-0.90953 0.0322,0.0014 -14.051,-0.31203 0.0334,-1.49963 z m 153.5839,47.70176 -3.528,7.43759 -4.7376,-6.73204 c -0.2384,-0.33875 -0.157,-0.8066 0.1817,-1.04498 0.3388,-0.23839 0.8066,-0.15703 1.045,0.18171 l 3.9976,5.68059 -1.2909,0.11019 2.977,-6.27593 c 0.1775,-0.37424 0.6248,-0.53372 0.999,-0.35619 0.3743,0.17752 0.5338,0.62481 0.3562,0.99906 z" /><path
           inkscape:connector-curvature="0"
           id="path180"
           style="fill:#e2f0d9;fill-opacity:1;fill-rule:nonzero;stroke:none"
           d="M 207,2 H 313 V 63 H 207 Z" /><g
           transform="matrix(7.874016e-5,0,0,-7.874016e-5,207,63)"
           id="g182"><path
             inkscape:connector-curvature="0"
             id="path184"
             style="fill:none;stroke:#548235;stroke-width:28575;stroke-linecap:butt;stroke-linejoin:miter;stroke-miterlimit:8;stroke-dasharray:none;stroke-opacity:1"
             d="M 0,0 H 1346200 V 774700 H 0 Z" /></g><g
           transform="translate(238.6178,-208)"
           id="g186"><text
             id="text190"
             style="font-variant:normal;font-weight:normal;font-size:18px;font-family:Helvetica,Calibri;-inkscape-font-specification:Helvetica,Calibri;writing-mode:lr-tb;fill:#548235;fill-opacity:1;fill-rule:nonzero;stroke:none"
             transform="matrix(1,0,0,-1,0,245)"><tspan
               id="tspan188"
               sodipodi:role="line"
               y="0"
               >Other </tspan></text></g><g
           transform="translate(223.1378,-229)"
           id="g192"><text
             id="text196"
             style="font-variant:normal;font-weight:normal;font-size:18px;font-family:Helvetica,Calibri;-inkscape-font-specification:Helvetica,Calibri;writing-mode:lr-tb;fill:#548235;fill-opacity:1;fill-rule:nonzero;stroke:none"
             transform="matrix(1,0,0,-1,0,245)"><tspan
               id="tspan194"
               sodipodi:role="line"
               y="0"
               >aesthetics</tspan></text></g><path
           inkscape:connector-curvature="0"
           id="path198"
           style="fill:#7f7f7f;fill-opacity:1;fill-rule:nonzero;stroke:none"
           d="m 154.2512,89.95855 0.3008,-5.42844 0.8828,-5.42264 1.4228,-5.33218 1.9235,-5.19995 2.3852,-5.02617 2.8083,-4.81097 3.1934,-4.55431 3.5405,-4.25608 3.85,-3.91615 4.1221,-3.53427 4.3573,-3.11011 4.5553,-2.64329 4.7164,-2.13322 4.8402,-1.57926 4.9263,-0.98068 3.4398,-0.23308 0.1014,1.49656 -3.3915,0.22981 0.0957,-0.01271 -4.835,0.96252 0.0862,-0.02256 -4.7588,1.55268 0.0764,-0.02966 -4.6444,2.10068 0.0673,-0.03466 -4.4919,2.60653 0.0593,-0.03824 -4.3014,3.07022 0.0525,-0.04107 -4.0726,3.49176 0.0466,-0.04358 -3.8058,3.87115 0.0418,-0.04615 -3.5008,4.20838 0.0375,-0.04905 -3.1577,4.50346 0.0336,-0.05248 -2.7765,4.75639 0.0299,-0.05656 -2.3572,4.96716 0.0259,-0.06135 -1.8997,5.13577 0.0212,-0.06683 -1.4042,5.26224 0.0157,-0.07284 -0.8705,5.34654 0.009,-0.07902 -0.2986,5.3887 -1.4977,-0.08299 z m 45.4258,-61.17078 7.3747,3.65763 -6.8139,4.61905 c -0.3428,0.23243 -0.8092,0.1429 -1.0416,-0.19996 -0.2324,-0.34286 -0.1429,-0.80922 0.1999,-1.04164 l 5.7497,-3.89762 0.0876,1.2927 -6.2229,-3.08636 c -0.3711,-0.18405 -0.5227,-0.63406 -0.3387,-1.00515 0.1841,-0.37107 0.6341,-0.5227 1.0052,-0.33865 z" /><path
           inkscape:connector-curvature="0"
           id="path200"
           style="fill:#7f7f7f;fill-opacity:1;fill-rule:nonzero;stroke:none"
           d="m 313.0585,31.69787 4.2787,0.33453 4.2936,0.98624 4.214,1.58644 4.1017,2.14062 3.9579,2.64995 3.7828,3.11556 3.5766,3.53826 3.3484,3.92994 5.8199,8.78612 2.4393,4.82165 2.0655,5.02203 1.6651,5.19399 1.2313,5.32441 0.7637,5.41316 0.1893,3.93996 -1.4983,0.07195 -0.1876,-3.9054 0.007,0.0688 -0.7544,-5.34655 0.012,0.0642 -1.217,-5.26224 0.0166,0.05998 -1.6464,-5.13578 0.0205,0.05632 -2.0429,-4.96716 0.0244,0.0533 -2.4062,-4.75639 0.0439,0.0756 -5.7707,-8.71185 0.0544,0.07224 -3.2983,-3.87115 0.0434,0.04677 -3.5296,-3.49177 0.0507,0.04575 -3.7279,-3.07022 0.0596,0.04428 -3.893,-2.60653 0.0702,0.04169 -4.0252,-2.10068 0.0828,0.03701 -4.1243,-1.55268 0.0964,0.02906 -4.1904,-0.96252 0.1094,0.01675 -4.2234,-0.3302 0.117,-1.49544 z m 48.852,51.00424 -3.802,7.30136 -4.4841,-6.90342 c -0.2257,-0.34736 -0.127,-0.81187 0.2204,-1.0375 0.3473,-0.22563 0.8118,-0.12695 1.0375,0.22041 l 3.7838,5.8252 -1.2942,0.06215 3.2081,-6.16098 c 0.1914,-0.36739 0.6443,-0.51013 1.0117,-0.31883 0.3673,0.19131 0.5101,0.64422 0.3188,1.01161 z" /></g></g></g></svg>
